<svg xmlns="http://www.w3.org/2000/svg" width="17.917" height="17.034" viewBox="0 0 17.917 17.034">
  <g id="Gruppe_128" data-name="Gruppe 128" transform="translate(0.625 0.625)">
    <path id="Pfad_70" data-name="Pfad 70" d="M37.333,149.125H34.175c-2.808,0-3.508-.7-3.508-3.508v-5c0-2.809.7-3.509,3.508-3.509H42.95c2.808,0,3.508.7,3.508,3.509" transform="translate(-30.667 -137.108)" fill="none" stroke="#fff" stroke-linecap="round" stroke-linejoin="round" stroke-width="1.25"/>
    <path id="Pfad_71" data-name="Pfad 71" d="M37.333,152.892v-3.767" transform="translate(-30.667 -137.108)" fill="none" stroke="#fff" stroke-linecap="round" stroke-linejoin="round" stroke-width="1.25"/>
    <path id="Pfad_72" data-name="Pfad 72" d="M30.667,145.792h6.667" transform="translate(-30.667 -137.108)" fill="none" stroke="#fff" stroke-linecap="round" stroke-linejoin="round" stroke-width="1.25"/>
    <path id="Pfad_73" data-name="Pfad 73" d="M34.617,152.892h2.717" transform="translate(-30.667 -137.108)" fill="none" stroke="#fff" stroke-linecap="round" stroke-linejoin="round" stroke-width="1.25"/>
    <path id="Pfad_74" data-name="Pfad 74" d="M47.333,145.667v4.758c0,1.975-.492,2.467-2.467,2.467H41.908c-1.975,0-2.467-.492-2.467-2.467v-4.758c0-1.975.492-2.467,2.467-2.467h2.958C46.842,143.2,47.333,143.692,47.333,145.667Z" transform="translate(-30.667 -137.108)" fill="none" stroke="#fff" stroke-linecap="round" stroke-linejoin="round" stroke-width="1.25"/>
    <path id="Pfad_75" data-name="Pfad 75" d="M43.37,150.208h.007" transform="translate(-30.667 -137.108)" fill="none" stroke="#fff" stroke-linecap="round" stroke-linejoin="round" stroke-width="1.667"/>
  </g>
</svg>
