<svg xmlns="http://www.w3.org/2000/svg" width="19.64" height="21.5" viewBox="0 0 19.64 21.5">
  <g id="Gruppe_151" data-name="Gruppe 151" transform="translate(0.82 0.75)">
    <path id="Pfad_59" data-name="Pfad 59" d="M1717,93.98c-3.33-.33-6.68-.5-10.02-.5a59.068,59.068,0,0,0-5.94.3l-2.04.2" transform="translate(-1699 -90)" fill="none" stroke="#fff" stroke-linecap="round" stroke-linejoin="round" stroke-width="1.5"/>
    <path id="Pfad_60" data-name="Pfad 60" d="M1704.5,92.97l.22-1.31c.16-.95.28-1.66,1.97-1.66h2.62c1.69,0,1.82.75,1.97,1.67l.22,1.3" transform="translate(-1699 -90)" fill="none" stroke="#fff" stroke-linecap="round" stroke-linejoin="round" stroke-width="1.5"/>
    <path id="Pfad_61" data-name="Pfad 61" d="M1714.85,97.14l-.65,10.07c-.11,1.57-.2,2.79-2.99,2.79h-6.42c-2.79,0-2.88-1.22-2.99-2.79l-.65-10.07" transform="translate(-1699 -90)" fill="none" stroke="#fff" stroke-linecap="round" stroke-linejoin="round" stroke-width="1.5"/>
    <path id="Pfad_62" data-name="Pfad 62" d="M1706.33,104.5h3.33" transform="translate(-1699 -90)" fill="none" stroke="#fff" stroke-linecap="round" stroke-linejoin="round" stroke-width="1.5"/>
    <path id="Pfad_63" data-name="Pfad 63" d="M1705.5,100.5h5" transform="translate(-1699 -90)" fill="none" stroke="#fff" stroke-linecap="round" stroke-linejoin="round" stroke-width="1.5"/>
  </g>
</svg>
