<svg xmlns="http://www.w3.org/2000/svg" width="19.64" height="21.5" viewBox="0 0 19.64 21.5">
  <g id="Gruppe_65" data-name="Gruppe 65" transform="translate(0.82 0.75)">
    <path id="Pfad_91" data-name="Pfad 91" d="M1813,524.98c-3.33-.33-6.68-.5-10.02-.5a59.064,59.064,0,0,0-5.94.3l-2.04.2" transform="translate(-1795 -521)" fill="none" stroke="#8a8a8c" stroke-linecap="round" stroke-linejoin="round" stroke-width="1.5"/>
    <path id="Pfad_92" data-name="Pfad 92" d="M1800.5,523.97l.22-1.31c.16-.95.28-1.66,1.97-1.66h2.62c1.69,0,1.82.75,1.97,1.67l.22,1.3" transform="translate(-1795 -521)" fill="none" stroke="#8a8a8c" stroke-linecap="round" stroke-linejoin="round" stroke-width="1.5"/>
    <path id="Pfad_93" data-name="Pfad 93" d="M1810.85,528.14l-.65,10.07c-.11,1.57-.2,2.79-2.99,2.79h-6.42c-2.79,0-2.88-1.22-2.99-2.79l-.65-10.07" transform="translate(-1795 -521)" fill="none" stroke="#8a8a8c" stroke-linecap="round" stroke-linejoin="round" stroke-width="1.5"/>
    <path id="Pfad_94" data-name="Pfad 94" d="M1802.33,535.5h3.33" transform="translate(-1795 -521)" fill="none" stroke="#8a8a8c" stroke-linecap="round" stroke-linejoin="round" stroke-width="1.5"/>
    <path id="Pfad_95" data-name="Pfad 95" d="M1801.5,531.5h5" transform="translate(-1795 -521)" fill="none" stroke="#8a8a8c" stroke-linecap="round" stroke-linejoin="round" stroke-width="1.5"/>
  </g>
</svg>
