<svg xmlns="http://www.w3.org/2000/svg" width="17.188" height="17.758" viewBox="0 0 17.188 17.758">
  <g id="Gruppe_72" data-name="Gruppe 72" transform="translate(0.625 0.625)">
    <path id="Pfad_78" data-name="Pfad 78" d="M36.633,194.058a1.579,1.579,0,0,0-.275,0,3.7,3.7,0,1,1,.275,0Z" transform="translate(-30.954 -186.667)" fill="none" stroke="#fff" stroke-linecap="round" stroke-linejoin="round" stroke-width="1.25"/>
    <path id="Pfad_79" data-name="Pfad 79" d="M42.675,188.333a2.918,2.918,0,0,1,.108,5.834.872.872,0,0,0-.217,0" transform="translate(-30.954 -186.667)" fill="none" stroke="#fff" stroke-linecap="round" stroke-linejoin="round" stroke-width="1.25"/>
    <path id="Pfad_80" data-name="Pfad 80" d="M32.467,197.133c-2.017,1.35-2.017,3.55,0,4.892a8.14,8.14,0,0,0,8.342,0c2.017-1.35,2.017-3.55,0-4.892A8.177,8.177,0,0,0,32.467,197.133Z" transform="translate(-30.954 -186.667)" fill="none" stroke="#fff" stroke-linecap="round" stroke-linejoin="round" stroke-width="1.25"/>
    <path id="Pfad_81" data-name="Pfad 81" d="M44.283,201.667a4.036,4.036,0,0,0,1.633-.725,2.111,2.111,0,0,0,0-3.559,4.139,4.139,0,0,0-1.608-.716" transform="translate(-30.954 -186.667)" fill="none" stroke="#fff" stroke-linecap="round" stroke-linejoin="round" stroke-width="1.25"/>
  </g>
</svg>
